<svg id="Home_Main_Left" data-name="Home Main Left" xmlns="http://www.w3.org/2000/svg" viewBox="0 0 528 255.46"><defs><style>.cls-1,.cls-9{fill:#f5f5f5;}.cls-14,.cls-2{fill:#cdcdcd;}.cls-10,.cls-11,.cls-15,.cls-16,.cls-17,.cls-18,.cls-2,.cls-20,.cls-3,.cls-8,.cls-9{fill-rule:evenodd;}.cls-3,.cls-5{fill:#e1e1e1;}.cls-4{fill:#d2d2d2;}.cls-6{fill:#cbbcaa;}.cls-7{fill:#e0d5c8;}.cls-8{fill:#f4e1d7;}.cls-10{fill:#fff;}.cls-11,.cls-12{fill:#ffebc1;}.cls-13{fill:#f86b7e;}.cls-15{fill:#f5a99d;}.cls-16{fill:#4a234b;}.cls-17{fill:#b7b7b7;}.cls-18{fill:#f1f1f1;}.cls-19,.cls-20{fill:none;stroke:#cdcdcd;stroke-miterlimit:10;stroke-width:6px;}</style></defs><title>Home Main Right</title><circle class="cls-1" cx="115" cy="51" r="38"/><path class="cls-2" d="M196,98H519V260H196Z" transform="translate(-62 -27)"/><path class="cls-3" d="M201,79H514a5,5,0,0,1,5,5V98H196V84A5,5,0,0,1,201,79Z" transform="translate(-62 -27)"/><circle class="cls-4" cx="153" cy="62" r="5"/><circle class="cls-4" cx="166" cy="62" r="5"/><circle class="cls-4" cx="179" cy="62" r="5"/><path class="cls-5" d="M421,110h-6v6h6v-6Zm-12,0h-6v6h6v-6Zm-12,0h-6v6h6v-6Zm-12,0h-6v6h6v-6Zm-12,0h-6v6h6v-6Zm-12,0h-6v6h6v-6Zm-12,0h-6v1h-5v6h6v-1h5v-6Zm-5,13h-6v6h6v-6Zm0,12h-6v6h6v-6Zm0,12h-6v6h6v-6Zm-2,8h-4v4h0v0h0v2h6v-2h-2v-4Zm12,0h-6v6h6v-6Zm12,0h-6v6h6v-6Zm12,0h-6v6h6v-6Zm12,0h-6v6h6v-6Zm12,0h-6v6h6v-6Zm12,0h-6v6h6v-6Zm12,0h-6v6h6v-6Zm7,0h-1v1h-5v5h6v-6Zm0-11h-6v6h6v-6Zm0-12h-6v6h6v-6Zm0-12h-6v6h6v-6Zm0-10h-6v6h6v-6Z" transform="translate(-62 -27)"/><path class="cls-5" d="M471,150h-6v6h6v-6Zm-12,0h-6v6h6v-6Zm-12,0h-6v6h6v-6Zm-12,0h-6v6h6v-6Zm-12,0h-6v6h6v-6Zm-12,0h-6v6h6v-6Zm-12,0h-6v6h6v-6Zm-12,0h-6v6h6v-6Zm-12,0h-6v6h6v-6Zm-11,0h-6v6h5v-5h1v-1Zm0,7h-6v6h6v-6Zm0,12h-6v6h6v-6Zm0,12h-6v6h6v-6Zm0,12h-6v6h6v-6Zm0,12h-6v6h6v-6Zm0,12h-6v6h6v-6Zm0,12h-6v6h5v1h6v-6h-5v-1Zm17,1h-6v6h6v-6Zm12,0h-6v6h6v-6Zm12,0h-6v6h6v-6Zm12,0h-6v6h6v-6Zm12,0h-6v6h6v-6Zm12,0h-6v6h6v-6Zm12,0h-6v6h6v-6Zm12,0h-6v6h6v-6Zm12,0h-6v6h6v-6Zm6,0h-6v6h6v-6Zm0-12h-6v6h6v-6Zm0-12h-6v6h6v-6Zm0-12h-6v6h6v-6Zm0-12h-6v6h6v-6Zm0-12h-6v6h6v-6Zm0-12h-6v6h6v-6Zm0-8h-6v6h6v-6Z" transform="translate(-62 -27)"/><path class="cls-5" d="M372,126h-6v6h0v6h6V126Zm-12,0h-6v6h6v-6Zm-12,0h-6v6h6v-6Zm-12,0h-6v6h6v-6Zm-12,0h-6v6h6v-6Zm-12,0h-6v6h6v-6Zm-12,0h-6v6h6v-6Zm-12,0h-6v6h6v-6Zm-12,0h-6v6h6v-6Zm-12,0h-6v6h6v-6Zm-12,0h-6v6h0v6h6v-6h0v-6Zm0,18h-6v6h6v-6Zm0,12h-6v6h6v-6Zm0,12h-6v6h6v-6Zm0,12h-6v6h6v-6Zm0,12h-6v6h6v-6Zm0,12h-6v6h6v-6Zm0,12h-6v6h6v-6Zm0,12h-6v6h0v6h6v-6h0v-6Zm12,6h-6v6h6v-6Zm12,0h-6v6h6v-6Zm12,0h-6v6h6v-6Zm12,0h-6v6h6v-6Zm12,0h-6v6h6v-6Zm12,0h-6v6h6v-6Zm12,0h-6v6h6v-6Zm12,0h-6v6h6v-6Zm12,0h-6v6h6v-6Zm12,0h-6v6h6v-6Zm0-6h-6v6h6v-6Zm0-12h-6v6h6v-6Zm0-12h-6v6h6v-6Zm0-12h-6v6h6v-6Zm0-12h-6v6h6v-6Zm0-12h-6v6h6v-6Zm0-12h-6v6h6v-6Zm0-12h-6v6h6v-6Z" transform="translate(-62 -27)"/><rect class="cls-6" x="107" y="162" width="90" height="71"/><rect class="cls-7" x="107" y="189" width="62" height="71" transform="translate(214 422) rotate(180)"/><rect class="cls-1" x="92" y="99" width="71" height="20"/><rect class="cls-5" x="118" y="113" width="55" height="49"/><rect class="cls-1" x="131" y="140" width="49" height="49" transform="translate(249 302) rotate(180)"/><path class="cls-8" d="M338.62,178.67s-71,78.82-101.7,47.4c-28.49-29.16,64.34-109.56,64.34-109.56l18.16,5-53.23,76.11s58.65-63.12,86-65.75C382.3,128.93,338.62,178.67,338.62,178.67Z" transform="translate(-62 -27)"/><path class="cls-9" d="M297.5,162.5l29,29,15-12-21-37Z" transform="translate(-62 -27)"/><path class="cls-10" d="M443.42,261l-91.74.22-31.59-118.7s62.5-37,106.22-8.64C482.3,170.23,443.42,261,443.42,261Z" transform="translate(-62 -27)"/><polygon class="cls-11" points="63 115 25 115 15 76 53 76 63 115"/><polygon class="cls-11" points="48 125 10 125 0 86 38 86 48 125"/><rect class="cls-12" x="446" y="119" width="38" height="39"/><rect class="cls-12" x="399" y="100" width="38" height="39"/><rect class="cls-12" x="471" y="94" width="38" height="39" transform="translate(-73.47 47.63) rotate(-8.61)"/><polygon class="cls-11" points="166 210 128 210 118 171 156 171 166 210"/><polygon class="cls-3" points="444 182 508 182 495 233 431 233 444 182"/><polygon class="cls-9" points="510 182 446 182 459 233 523 233 510 182"/><rect class="cls-5" x="444" y="172" width="66" height="11"/><path class="cls-10" d="M570,250a15,15,0,1,1,15-15A15,15,0,0,1,570,250Z" transform="translate(-62 -27)"/><path class="cls-13" d="M570,225a10,10,0,1,1-10,10,10,10,0,0,1,10-10m0-10a20,20,0,1,0,20,20,20,20,0,0,0-20-20Z" transform="translate(-62 -27)"/><rect class="cls-14" x="112" y="24" width="6" height="36"/><rect class="cls-14" x="169.41" y="59.28" width="6" height="27.64" transform="translate(-76.69 38.26) rotate(-20.58)"/><rect class="cls-14" x="82" y="125" width="23" height="7"/><path class="cls-10" d="M64,241h79.65a8.92,8.92,0,0,0,8.67-11L127,126H64Z" transform="translate(-62 -27)"/><path class="cls-15" d="M362.81,117.4s-17.31-30.08-30.26-38.1-63.16,23.49-51.87,43c2.45,4.24,5.16,8.73,8,13.16.23.84.52,1.74.88,2.69,1.78,4.73-3.55,13.71-.68,14.48,1.73.47,5-2.94,7.34-5.74,7.89,11.39,15.31,20,18.6,18.82,7.75-2.84,13.31-15.36,21.62-16.9,3.87-.72,11.83,16.72,11.83,16.72l32.93-37.75Z" transform="translate(-62 -27)"/><path class="cls-16" d="M363.2,116.15c1.41,1.58-40.55,37.57-54.35-.26-8.33-22.83-28.89,5-28.89,5S257.44,97.32,310.2,71.65C346.85,53.82,350.91,102.4,363.2,116.15Z" transform="translate(-62 -27)"/><path class="cls-10" d="M238,249.5c10.22,0,18.5,4,18.5,9s-8.28,9-18.5,9-18.5-4-18.5-9S227.78,249.5,238,249.5Z" transform="translate(-62 -27)"/><path class="cls-15" d="M320.5,118.75c-3.09,2-2.86,7.9.51,13.21s8.6,8,11.69,6,2.86-7.9-.51-13.21S323.59,116.76,320.5,118.75Z" transform="translate(-62 -27)"/><path class="cls-17" d="M368.08,152.51l-25.59,106-25,2,41-102.66Z" transform="translate(-62 -27)"/><path class="cls-18" d="M337.55,172.52l57.94-36-13.21-21.06-48.8,50.68Z" transform="translate(-62 -27)"/><path class="cls-8" d="M240.52,276.3s9.5-23.19,22.34-24.18,103.76-17,103.76-17L401.5,147.5l35,34-34.07,64.17s-7.42,17.16-26,23.08c-10.16,3.25-98.87-3.49-113.51,7.32-8.14,6-5.25,6.39-5.25,6.39Z" transform="translate(-62 -27)"/><path class="cls-10" d="M436.57,209.83l-54.35-33.18L402.5,134.5l36,42Z" transform="translate(-62 -27)"/><line class="cls-19" x1="209" y1="36" x2="198" y2="29"/><line class="cls-19" x1="232.1" y1="21.48" x2="226.9" y2="9.52"/><line class="cls-19" x1="311.94" y1="41.9" x2="323.06" y2="35.1"/><path class="cls-14" d="M330.19,27v6a45.56,45.56,0,0,1,10.09,1.25c9.83,2.28,15.68,6.46,17.39,8.59a18.42,18.42,0,0,1-6.84,1,45.56,45.56,0,0,1-10.09-1.25c-9.83-2.28-15.68-6.46-17.39-8.59a18.43,18.43,0,0,1,6.84-1V27m0,0c-7.52,0-12.86,2.15-13.29,5.95-.62,5.54,9.45,12.48,22.48,15.51a51.28,51.28,0,0,0,11.44,1.4c7.52,0,12.86-2.15,13.29-5.95.62-5.54-9.45-12.48-22.48-15.51A51.27,51.27,0,0,0,330.19,27Z" transform="translate(-62 -27)"/><path class="cls-20" d="M340.27,46c7.13,1.66,12.64,5.45,12.3,8.48s-6.4,4.14-13.53,2.49" transform="translate(-62 -27)"/></svg>